<svg xmlns="http://www.w3.org/2000/svg" width="83.188" height="121" viewBox="0 0 83.188 121">
  <path id="microphone-solid" d="M41.594,83.188A22.687,22.687,0,0,0,64.281,60.5V22.688a22.688,22.688,0,0,0-45.375,0V60.5A22.687,22.687,0,0,0,41.594,83.188ZM79.406,45.375H75.625a3.78,3.78,0,0,0-3.781,3.781V60.5A30.285,30.285,0,0,1,38.571,90.6C22.855,89.07,11.344,74.942,11.344,59.153v-10a3.78,3.78,0,0,0-3.781-3.781H3.781A3.78,3.78,0,0,0,0,49.156v9.491c0,21.184,15.118,40.069,35.922,42.938v8.071H22.688a3.78,3.78,0,0,0-3.781,3.781v3.781A3.78,3.78,0,0,0,22.688,121H60.5a3.78,3.78,0,0,0,3.781-3.781v-3.781a3.78,3.78,0,0,0-3.781-3.781H47.266v-7.981A41.634,41.634,0,0,0,83.188,60.5V49.156A3.78,3.78,0,0,0,79.406,45.375Z" fill="#fff"/>
</svg>
