<svg xmlns="http://www.w3.org/2000/svg" width="30.331" height="30.331" viewBox="0 0 30.331 30.331">
  <path id="times-solid" d="M20.915,95.166l8.623-8.623a2.711,2.711,0,0,0,0-3.833l-1.916-1.916a2.711,2.711,0,0,0-3.833,0l-8.623,8.623L6.543,80.794a2.711,2.711,0,0,0-3.833,0L.794,82.71a2.711,2.711,0,0,0,0,3.833l8.623,8.623L.794,103.789a2.711,2.711,0,0,0,0,3.833l1.916,1.916a2.711,2.711,0,0,0,3.833,0l8.623-8.623,8.623,8.623a2.711,2.711,0,0,0,3.833,0l1.916-1.916a2.711,2.711,0,0,0,0-3.833Z" transform="translate(0 -80)" fill="#d6e1e5"/>
</svg>
