<svg xmlns="http://www.w3.org/2000/svg" width="119.474" height="99.566" viewBox="0 0 119.474 99.566">
  <path id="volume-up-solid" d="M44.6,27.415,26.147,45.865H4.978A4.977,4.977,0,0,0,0,50.843V80.711a4.978,4.978,0,0,0,4.978,4.978H26.147L44.6,104.139a4.981,4.981,0,0,0,8.5-3.52V30.935a4.981,4.981,0,0,0-8.5-3.52ZM93,16.82a5.019,5.019,0,0,0-5.509,8.392,48.463,48.463,0,0,1,0,81.134A5.019,5.019,0,1,0,93,114.737,58.5,58.5,0,0,0,93,16.82Zm6.565,48.957A38.3,38.3,0,0,0,81.771,33.37a4.957,4.957,0,0,0-6.87,1.547,5.037,5.037,0,0,0,1.537,6.92,28.348,28.348,0,0,1,0,47.881,5.036,5.036,0,0,0-1.537,6.92,4.966,4.966,0,0,0,6.87,1.547A38.3,38.3,0,0,0,99.562,65.777ZM70.156,49.833a4.98,4.98,0,1,0-4.8,8.724,8.176,8.176,0,0,1,0,14.441,4.98,4.98,0,0,0,4.8,8.724,18.135,18.135,0,0,0,0-31.889Z" transform="translate(0 -15.995)" fill="#fff"/>
</svg>
